<?xml version="1.0" encoding="UTF-8" standalone="no"?>
<svg
   width="21px"
   height="28px"
   viewBox="0 0 21 28"
   version="1.1"
   id="svg5"
   sodipodi:docname="child-reaching-solid-25-blue.svg"
   inkscape:version="1.2.1 (9c6d41e410, 2022-07-14)"
   xmlns:inkscape="http://www.inkscape.org/namespaces/inkscape"
   xmlns:sodipodi="http://sodipodi.sourceforge.net/DTD/sodipodi-0.dtd"
   xmlns="http://www.w3.org/2000/svg"
   xmlns:svg="http://www.w3.org/2000/svg">
  <defs
     id="defs9" />
  <sodipodi:namedview
     id="namedview7"
     pagecolor="#ffffff"
     bordercolor="#000000"
     borderopacity="0.25"
     inkscape:showpageshadow="2"
     inkscape:pageopacity="0.0"
     inkscape:pagecheckerboard="0"
     inkscape:deskcolor="#d1d1d1"
     showgrid="false"
     inkscape:zoom="90.509668"
     inkscape:cx="8.8664561"
     inkscape:cy="23.306902"
     inkscape:window-width="1920"
     inkscape:window-height="1051"
     inkscape:window-x="-9"
     inkscape:window-y="131"
     inkscape:window-maximized="1"
     inkscape:current-layer="svg5" />
  <g
     id="surface1">
    <path
       style=" stroke:none;fill-rule:nonzero;fill:rgb(0%,0%,0%);fill-opacity:1;"
       d="M 14 3.5 C 14 1.570312 12.429688 0 10.5 0 C 8.570312 0 7 1.570312 7 3.5 C 7 5.429688 8.570312 7 10.5 7 C 12.429688 7 14 5.429688 14 3.5 Z M 8.363281 9.257812 C 7.066406 8.800781 5.929688 7.929688 5.144531 6.753906 L 4.078125 5.152344 C 3.542969 4.347656 2.460938 4.132812 1.652344 4.671875 C 0.84375 5.207031 0.628906 6.292969 1.164062 7.097656 L 2.238281 8.695312 C 3.226562 10.175781 4.578125 11.34375 6.125 12.109375 L 6.125 26.25 C 6.125 27.21875 6.90625 28 7.875 28 C 8.84375 28 9.625 27.21875 9.625 26.25 L 9.625 21 L 11.375 21 L 11.375 26.25 C 11.375 27.21875 12.15625 28 13.125 28 C 14.09375 28 14.875 27.21875 14.875 26.25 L 14.875 12.117188 C 16.464844 11.34375 17.851562 10.140625 18.851562 8.609375 L 19.847656 7.082031 C 20.371094 6.273438 20.140625 5.191406 19.332031 4.660156 C 18.523438 4.128906 17.441406 4.359375 16.910156 5.171875 L 15.914062 6.695312 C 14.722656 8.519531 12.691406 9.625 10.511719 9.625 C 9.820312 9.625 9.148438 9.515625 8.507812 9.308594 C 8.460938 9.292969 8.410156 9.269531 8.363281 9.257812 Z M 8.363281 9.257812 "
       id="path2" />
  </g>
  <path
     style="fill:#0065fc;stroke-width:0.2;stroke:#0065fc;stroke-opacity:1;stroke-dasharray:none"
     d="M 7.5509259,27.95283 C 6.8416266,27.79867 6.3052098,27.251788 6.1714424,26.546435 6.1533098,26.450823 6.1410446,23.524641 6.1408067,19.237475 L 6.1404094,12.087963 5.8263301,11.925926 C 5.4193044,11.715937 4.7561892,11.279402 4.3263889,10.9385 3.8691903,10.575868 3.0463948,9.7427756 2.6938324,9.2855139 2.3882609,8.8891979 1.1745439,7.0921768 1.0578494,6.8632887 1.0195145,6.7880976 0.96655234,6.6349726 0.94015567,6.523011 0.73776585,5.6645734 1.2059755,4.8135944 2.0573818,4.4924333 c 0.3003108,-0.113281 0.7963115,-0.1173084 1.1109681,-0.00902 0.257532,0.088628 0.5532842,0.2778535 0.716307,0.4583003 0.063796,0.070614 0.3957209,0.5480333 0.7376116,1.0609311 0.7598144,1.1398592 0.826291,1.2279758 1.2747104,1.6896643 0.8916791,0.9180652 2.0160846,1.5395152 3.261101,1.8023846 1.6456801,0.3474648 3.3664081,0.047035 4.7737141,-0.8334653 0.435617,-0.2725496 0.761705,-0.5352168 1.154254,-0.9297627 0.456955,-0.4592804 0.591602,-0.6379636 1.311634,-1.7405981 0.645259,-0.9881316 0.748057,-1.1197611 1.010569,-1.2940067 0.704682,-0.4677408 1.58755,-0.3816148 2.182027,0.2128623 0.527407,0.5274076 0.66737,1.3313661 0.343162,1.971159 -0.10844,0.213997 -1.145236,1.8003882 -1.422785,2.1769892 -0.895766,1.2154497 -2.159821,2.2940507 -3.454281,2.9474927 l -0.196739,0.09931 -0.0085,7.250903 -0.0085,7.250902 -0.07307,0.191855 c -0.204789,0.537718 -0.586502,0.916571 -1.101175,1.092924 -0.309201,0.105948 -0.777499,0.105948 -1.0867,0 -0.514765,-0.176385 -0.896864,-0.555678 -1.101009,-1.092924 l -0.0729,-0.191855 -0.0093,-2.811342 -0.0093,-2.811343 H 10.5 9.6108444 l -0.00913,2.811343 -0.00913,2.811342 -0.086619,0.222939 c -0.2660759,0.684826 -0.8383712,1.105255 -1.5499556,1.138655 -0.1515046,0.0071 -0.3337963,2.59e-4 -0.4050926,-0.01525 z"
     id="path1053" />
  <path
     style="fill:#0065fc;stroke-width:0.132;stroke:#0065fc;stroke-opacity:1;stroke-dasharray:none"
     d="M 9.9404814,6.9352678 C 9.1758737,6.7966678 8.5187507,6.4475869 7.9980463,5.9033956 6.8499416,4.7035042 6.6959291,2.9486315 7.6164676,1.5555556 7.92097,1.0947439 8.5637115,0.54923727 9.0581267,0.33199266 c 1.1347713,-0.49861505 2.3440603,-0.39757249 3.3863173,0.28294486 0.250278,0.16341277 0.777206,0.69034058 0.940619,0.94061808 0.812133,1.2438368 0.793101,2.7319126 -0.05055,3.9522988 -0.192281,0.2781447 -0.611448,0.6916039 -0.882858,0.870836 -0.754851,0.4984839 -1.689206,0.7055747 -2.5111716,0.5565774 z"
     id="path1055" />
  <path
     style="fill:#0065fc;stroke:#0065fc;stroke-width:0.00390625;stroke-opacity:1"
     d="m 14.858725,14.366211 c 0.0014,-0.70415 0.0026,-1.500896 0.0026,-1.770547 l 10e-7,-0.490273 0.09277,-0.0462 c 0.449609,-0.223914 0.830711,-0.450983 1.232923,-0.734601 0.403686,-0.284657 0.807444,-0.615916 1.153427,-0.946314 0.06986,-0.06671 0.07118,-0.06772 0.08789,-0.06755 l 0.01697,1.81e-4 -0.04297,0.04138 c -0.69857,0.672743 -1.527296,1.259267 -2.397461,1.696783 l -0.131836,0.06629 v 1.765562 1.765562 h -0.0085 -0.0085 z"
     id="path1195" />
  <path
     style="fill:#0065fc;stroke:#0065fc;stroke-width:0.00390625;stroke-opacity:1"
     d="m 17.572266,10.1748 c 0.164872,-0.166342 0.306927,-0.3179739 0.441095,-0.4708336 0.02222,-0.025318 0.04128,-0.04516 0.04235,-0.044093 0.0041,0.00407 -0.20051,0.2316783 -0.337325,0.3752816 -0.09479,0.09949 -0.267508,0.271462 -0.27276,0.271577 -0.0023,5.1e-5 0.05467,-0.05932 0.126644,-0.131933 z"
     id="path1199" />
  <path
     style="fill:#0065fc;stroke:#0065fc;stroke-width:0.00390625;stroke-opacity:1"
     d=""
     id="path1201" />
  <path
     style="fill:#0065fc;stroke:#0065fc;stroke-width:0.00390625;stroke-opacity:1"
     d=""
     id="path1203" />
  <path
     style="fill:#0065fc;stroke:#0065fc;stroke-width:0.00390625;stroke-opacity:1"
     d="m 18.240234,9.4367577 c 0,-0.00215 0.0035,-0.00709 0.0078,-0.010976 0.0043,-0.00389 0.0078,-0.00531 0.0078,-0.00316 0,0.00215 -0.0035,0.00709 -0.0078,0.010976 -0.0043,0.00389 -0.0078,0.00531 -0.0078,0.00316 z"
     id="path1205" />
</svg>
