<?xml version="1.0" encoding="UTF-8"?>
<svg xmlns="http://www.w3.org/2000/svg" xmlns:xlink="http://www.w3.org/1999/xlink" width="21px" height="28px" viewBox="0 0 21 28" version="1.1">
<g id="surface1">
<path style=" stroke:none;fill-rule:nonzero;fill:rgb(0%,0%,0%);fill-opacity:1;" d="M 14 3.5 C 14 1.570312 12.429688 0 10.5 0 C 8.570312 0 7 1.570312 7 3.5 C 7 5.429688 8.570312 7 10.5 7 C 12.429688 7 14 5.429688 14 3.5 Z M 8.363281 9.257812 C 7.066406 8.800781 5.929688 7.929688 5.144531 6.753906 L 4.078125 5.152344 C 3.542969 4.347656 2.460938 4.132812 1.652344 4.671875 C 0.84375 5.207031 0.628906 6.292969 1.164062 7.097656 L 2.238281 8.695312 C 3.226562 10.175781 4.578125 11.34375 6.125 12.109375 L 6.125 26.25 C 6.125 27.21875 6.90625 28 7.875 28 C 8.84375 28 9.625 27.21875 9.625 26.25 L 9.625 21 L 11.375 21 L 11.375 26.25 C 11.375 27.21875 12.15625 28 13.125 28 C 14.09375 28 14.875 27.21875 14.875 26.25 L 14.875 12.117188 C 16.464844 11.34375 17.851562 10.140625 18.851562 8.609375 L 19.847656 7.082031 C 20.371094 6.273438 20.140625 5.191406 19.332031 4.660156 C 18.523438 4.128906 17.441406 4.359375 16.910156 5.171875 L 15.914062 6.695312 C 14.722656 8.519531 12.691406 9.625 10.511719 9.625 C 9.820312 9.625 9.148438 9.515625 8.507812 9.308594 C 8.460938 9.292969 8.410156 9.269531 8.363281 9.257812 Z M 8.363281 9.257812 "/>
</g>
</svg>
