<?xml version="1.0" encoding="UTF-8" standalone="no"?>
<svg
   width="28px"
   height="25px"
   viewBox="0 0 28 25"
   version="1.1"
   id="svg5"
   sodipodi:docname="dog-solid-25-blue.svg"
   inkscape:version="1.2.1 (9c6d41e410, 2022-07-14)"
   xmlns:inkscape="http://www.inkscape.org/namespaces/inkscape"
   xmlns:sodipodi="http://sodipodi.sourceforge.net/DTD/sodipodi-0.dtd"
   xmlns="http://www.w3.org/2000/svg"
   xmlns:svg="http://www.w3.org/2000/svg">
  <defs
     id="defs9" />
  <sodipodi:namedview
     id="namedview7"
     pagecolor="#ffffff"
     bordercolor="#000000"
     borderopacity="0.25"
     inkscape:showpageshadow="2"
     inkscape:pageopacity="0.0"
     inkscape:pagecheckerboard="0"
     inkscape:deskcolor="#d1d1d1"
     showgrid="false"
     inkscape:zoom="34.56"
     inkscape:cx="14.019097"
     inkscape:cy="12.514468"
     inkscape:window-width="1920"
     inkscape:window-height="1051"
     inkscape:window-x="-9"
     inkscape:window-y="131"
     inkscape:window-maximized="1"
     inkscape:current-layer="svg5" />
  <g
     id="surface1">
    <path
       style=" stroke:none;fill-rule:nonzero;fill:rgb(0%,0%,0%);fill-opacity:1;"
       d="M 15.050781 7.738281 L 16.171875 0.96875 C 16.265625 0.410156 16.746094 0 17.308594 0 C 17.675781 0 18.015625 0.171875 18.234375 0.464844 L 19.054688 1.5625 L 21.589844 1.5625 C 22.207031 1.5625 22.796875 1.8125 23.234375 2.25 L 24.109375 3.125 L 26.832031 3.125 C 27.480469 3.125 28 3.648438 28 4.296875 L 28 5.46875 C 28 7.625 26.257812 9.375 24.109375 9.375 L 20.742188 9.375 L 20.496094 10.863281 Z M 20.222656 12.503906 L 20.222656 23.4375 C 20.222656 24.300781 19.527344 25 18.667969 25 L 17.109375 25 C 16.25 25 15.554688 24.300781 15.554688 23.4375 L 15.554688 17.8125 C 14.390625 18.414062 13.066406 18.75 11.667969 18.75 C 10.265625 18.75 8.945312 18.414062 7.777344 17.8125 L 7.777344 23.4375 C 7.777344 24.300781 7.082031 25 6.222656 25 L 4.667969 25 C 3.804688 25 3.109375 24.300781 3.109375 23.4375 L 3.109375 12.195312 C 1.710938 11.664062 0.613281 10.472656 0.234375 8.949219 L 0.046875 8.195312 C -0.160156 7.359375 0.34375 6.507812 1.179688 6.296875 C 2.015625 6.089844 2.859375 6.597656 3.066406 7.4375 L 3.257812 8.195312 C 3.425781 8.886719 4.050781 9.375 4.765625 9.375 L 14.769531 9.375 Z M 22.554688 3.90625 C 22.554688 3.476562 22.207031 3.125 21.777344 3.125 C 21.351562 3.125 21 3.476562 21 3.90625 C 21 4.335938 21.351562 4.6875 21.777344 4.6875 C 22.207031 4.6875 22.554688 4.335938 22.554688 3.90625 Z M 22.554688 3.90625 "
       id="path2" />
  </g>
  <path
     style="fill:#0065fc;stroke:#0065fc;stroke-width:0.00300926"
     d="M 4.3155367,24.940683 C 3.8027517,24.813573 3.3653657,24.404648 3.1896771,23.888082 L 3.125,23.697917 3.1170813,17.939532 3.1091629,12.181148 2.8013981,12.037984 C 1.8640607,11.601959 1.0917837,10.853167 0.61991968,9.9228455 0.43049939,9.5493866 0.32641241,9.2488614 0.15457626,8.5792824 -0.04589676,7.7981166 -0.01392234,7.403255 0.28645087,6.9507236 0.57939769,6.5093805 1.1213279,6.2367356 1.634838,6.2723503 c 0.3996717,0.027719 0.7652071,0.1984886 1.0413378,0.4864874 0.215869,0.2251472 0.3050288,0.4258101 0.4644651,1.0453246 0.078998,0.3069584 0.1821233,0.6362312 0.2291675,0.7317173 0.1672929,0.3395558 0.4777072,0.6131129 0.8687599,0.7656074 l 0.188515,0.073513 5.1669572,0.0077 5.1669565,0.0077 2.717881,1.559044 2.717881,1.559044 0.0074,5.536847 c 0.0072,5.432514 0.0063,5.541116 -0.04982,5.763383 -0.0744,0.294624 -0.200335,0.512453 -0.424156,0.733657 -0.207298,0.204874 -0.504872,0.36294 -0.775699,0.412038 -0.277466,0.0503 -1.957068,0.04002 -2.183543,-0.01336 -0.545244,-0.128525 -1.002816,-0.573902 -1.14729,-1.11671 -0.03453,-0.129755 -0.04141,-0.638119 -0.04169,-3.085042 -2.32e-4,-1.987765 -0.0099,-2.929688 -0.0301,-2.929688 -0.01637,0 -0.104259,0.03726 -0.195313,0.08279 -0.09105,0.04554 -0.328312,0.148673 -0.527242,0.229196 -2.107589,0.853113 -4.496488,0.811312 -6.5972218,-0.115436 -0.2148438,-0.09478 -0.4069011,-0.17917 -0.426794,-0.187535 -0.028792,-0.01211 -0.036271,0.571108 -0.036671,2.859705 -5.555e-4,3.181383 0.00379,3.100592 -0.1862008,3.461061 -0.1945451,0.369109 -0.4615341,0.605748 -0.8545272,0.757391 -0.187263,0.07226 -0.195338,0.07278 -1.2157141,0.07932 -0.8179303,0.0052 -1.0617141,-0.002 -1.1966161,-0.03542 z"
     id="path861" />
  <path
     style="fill:#0065fc;stroke:#0065fc;stroke-width:0.103;stroke-dasharray:none"
     d="M 17.780671,9.2853316 C 16.292679,8.4314485 15.07349,7.7312144 15.071362,7.7292558 c -0.0021,-0.00196 0.253694,-1.5566814 0.568494,-3.454939 0.635308,-3.8309418 0.592917,-3.64063283 0.873421,-3.92113694 0.277977,-0.27797659 0.688864,-0.39390381 1.059547,-0.29893923 0.375272,0.09614025 0.485689,0.19797858 1.075903,0.99231147 l 0.390625,0.5257188 1.475694,0.011584 c 1.61399,0.01267 1.59308,0.010624 2.001444,0.1957855 0.322197,0.1460909 0.506799,0.2916662 1.052822,0.8302436 l 0.536904,0.5295836 h 1.435344 c 1.340729,0 1.447268,0.00371 1.616236,0.0563 0.355239,0.1105625 0.627178,0.3673307 0.759362,0.7169991 0.06006,0.1588871 0.06312,0.2111519 0.06226,1.0640851 -7.44e-4,0.737313 -0.01001,0.9433486 -0.05203,1.1574074 -0.08176,0.4164172 -0.182311,0.7123272 -0.366018,1.0770969 -0.46225,0.9178472 -1.273942,1.6269858 -2.228612,1.9470362 -0.556052,0.1864143 -0.498126,0.1821513 -2.640336,0.1943188 -1.078197,0.00612 -1.961169,0.013644 -1.962159,0.016711 -9.9e-4,0.00307 -0.05633,0.3347176 -0.122975,0.7369999 l -0.121174,0.731423 z m 4.242251,-4.6261149 c 0.571576,-0.1697398 0.725109,-0.9657387 0.262627,-1.3616059 -0.40793,-0.3491727 -1.065834,-0.1693747 -1.254702,0.3428967 -0.04454,0.1208033 -0.04708,0.3906968 -0.0048,0.5146077 0.141905,0.4163324 0.567609,0.6315934 0.996921,0.5041015 z"
     id="path863" />
  <path
     style="fill:#0065fc;stroke:#0065fc;stroke-width:0.103;stroke-dasharray:none"
     d="m 17.24537,24.958242 c -0.353712,-0.01565 -0.500684,-0.03428 -0.62281,-0.07892 -0.442119,-0.161615 -0.81947,-0.549073 -0.951294,-0.976773 -0.05077,-0.164718 -0.0555,-0.360591 -0.07568,-3.134321 -0.01615,-2.220143 -0.02994,-2.958623 -0.05523,-2.958623 -0.01854,0 -0.179771,0.06457 -0.358291,0.143484 -1.182239,0.522615 -2.256971,0.75355 -3.506538,0.753472 -1.243112,-8.7e-5 -2.3189666,-0.227879 -3.4915956,-0.739313 -0.201511,-0.08789 -0.375866,-0.149545 -0.387456,-0.137017 -0.01159,0.01253 -0.03342,1.350902 -0.048512,2.974166 -0.03096,3.330088 -0.010886,3.07217 -0.2697876,3.466319 -0.1719193,0.261728 -0.3571991,0.420027 -0.6639381,0.567252 l -0.2170139,0.104161 -1.0509751,0.0092 c -0.688105,0.006 -1.1020848,-0.0018 -1.1990032,-0.02256 -0.4337456,-0.09302 -0.8566791,-0.443358 -1.069169,-0.885644 L 3.1539352,23.784722 3.1363628,17.983218 C 3.1266979,14.79239 3.1169323,12.178779 3.1146615,12.175193 3.11239,12.171607 2.9543753,12.091005 2.7635163,11.996079 2.243181,11.737281 1.9329362,11.512694 1.502655,11.083338 0.80457555,10.386759 0.47530706,9.7727888 0.18856573,8.6330237 0.03427042,8.0197169 0.00933107,7.6888909 0.0959482,7.4044314 0.25572487,6.8797084 0.65327133,6.4891135 1.1832894,6.3361037 1.5409323,6.2328566 2.0434175,6.3168921 2.3715528,6.5348287 2.7562601,6.7903385 2.9255689,7.0690978 3.1124181,7.7546296 3.2738391,8.3468683 3.3319468,8.5130117 3.4332908,8.6720811 3.5685793,8.8844295 3.8527714,9.1312761 4.1100298,9.25989 l 0.230248,0.11511 5.1938657,0.00759 5.1938655,0.00759 2.719908,1.560533 2.719907,1.560533 0.008,5.506526 c 0.0058,3.983312 -0.0011,5.561111 -0.02466,5.703857 -0.08935,0.540581 -0.545476,1.034065 -1.097308,1.187178 -0.194333,0.05392 -1.129412,0.07948 -1.808449,0.04943 z"
     id="path865" />
  <path
     style="fill:#0065fc;stroke:#0065fc;stroke-width:0;stroke-dasharray:none"
     d="M 19.777199,10.471573 C 19.371383,10.238581 18.153935,9.5399832 17.071759,8.9191337 15.989583,8.2982844 15.092989,7.780224 15.079327,7.7678883 c -0.01366,-0.012335 0.09437,-0.7625527 0.240062,-1.667149 0.758852,-4.7115725 0.849182,-5.22767385 0.958212,-5.47475692 0.201433,-0.45648835 0.811839,-0.73552061 1.314992,-0.6011168 0.35163,0.09392872 0.516741,0.24641587 1.085309,1.00233352 l 0.380866,0.5063657 1.480454,0.017443 c 1.635257,0.019267 1.617531,0.017383 2.022468,0.2149348 0.302015,0.14734 0.47305,0.2839249 1.059507,0.8460965 l 0.517436,0.4960092 1.486818,0.00848 1.486818,0.00848 0.195445,0.092285 c 0.25698,0.1213403 0.486631,0.3509913 0.608704,0.608704 l 0.09284,0.196002 -8.24e-4,0.9548612 c -6.95e-4,0.8036982 -0.009,0.9937968 -0.05254,1.2008101 -0.26187,1.2454393 -1.045158,2.2707824 -2.152929,2.8182396 -0.2852,0.1409442 -0.722082,0.292524 -0.978709,0.3395703 -0.104856,0.019223 -0.920938,0.038629 -2.100509,0.04995 -1.060966,0.010182 -1.93742,0.026911 -1.947675,0.037176 -0.01025,0.010264 -0.07318,0.3457977 -0.139835,0.7456305 l -0.121192,0.726968 z m 2.329258,-5.8883728 c 0.146488,-0.068858 0.289557,-0.218004 0.355908,-0.3710263 0.05875,-0.1354823 0.05875,-0.4763655 0,-0.6118478 -0.121317,-0.2797882 -0.36037,-0.4322876 -0.676072,-0.4312879 -0.235609,7.465e-4 -0.390245,0.060685 -0.538156,0.2085963 -0.152817,0.1528175 -0.20422,0.2865267 -0.20422,0.5312205 0,0.335704 0.132355,0.5473554 0.42599,0.6812104 0.165391,0.075394 0.468506,0.072125 0.63655,-0.00687 z"
     id="path867" />
</svg>
