<?xml version="1.0" encoding="UTF-8"?>
<svg xmlns="http://www.w3.org/2000/svg" xmlns:xlink="http://www.w3.org/1999/xlink" width="28px" height="25px" viewBox="0 0 28 25" version="1.1">
<g id="surface1">
<path style=" stroke:none;fill-rule:nonzero;fill:rgb(0%,0%,0%);fill-opacity:1;" d="M 15.050781 7.738281 L 16.171875 0.96875 C 16.265625 0.410156 16.746094 0 17.308594 0 C 17.675781 0 18.015625 0.171875 18.234375 0.464844 L 19.054688 1.5625 L 21.589844 1.5625 C 22.207031 1.5625 22.796875 1.8125 23.234375 2.25 L 24.109375 3.125 L 26.832031 3.125 C 27.480469 3.125 28 3.648438 28 4.296875 L 28 5.46875 C 28 7.625 26.257812 9.375 24.109375 9.375 L 20.742188 9.375 L 20.496094 10.863281 Z M 20.222656 12.503906 L 20.222656 23.4375 C 20.222656 24.300781 19.527344 25 18.667969 25 L 17.109375 25 C 16.25 25 15.554688 24.300781 15.554688 23.4375 L 15.554688 17.8125 C 14.390625 18.414062 13.066406 18.75 11.667969 18.75 C 10.265625 18.75 8.945312 18.414062 7.777344 17.8125 L 7.777344 23.4375 C 7.777344 24.300781 7.082031 25 6.222656 25 L 4.667969 25 C 3.804688 25 3.109375 24.300781 3.109375 23.4375 L 3.109375 12.195312 C 1.710938 11.664062 0.613281 10.472656 0.234375 8.949219 L 0.046875 8.195312 C -0.160156 7.359375 0.34375 6.507812 1.179688 6.296875 C 2.015625 6.089844 2.859375 6.597656 3.066406 7.4375 L 3.257812 8.195312 C 3.425781 8.886719 4.050781 9.375 4.765625 9.375 L 14.769531 9.375 Z M 22.554688 3.90625 C 22.554688 3.476562 22.207031 3.125 21.777344 3.125 C 21.351562 3.125 21 3.476562 21 3.90625 C 21 4.335938 21.351562 4.6875 21.777344 4.6875 C 22.207031 4.6875 22.554688 4.335938 22.554688 3.90625 Z M 22.554688 3.90625 "/>
</g>
</svg>
