<?xml version="1.0" encoding="UTF-8" standalone="no"?>
<svg
   width="28px"
   height="28px"
   viewBox="0 0 28 28"
   version="1.1"
   id="svg3877"
   sodipodi:docname="heart-solid-25-blue.svg"
   inkscape:version="1.2.1 (9c6d41e410, 2022-07-14)"
   xmlns:inkscape="http://www.inkscape.org/namespaces/inkscape"
   xmlns:sodipodi="http://sodipodi.sourceforge.net/DTD/sodipodi-0.dtd"
   xmlns="http://www.w3.org/2000/svg"
   xmlns:svg="http://www.w3.org/2000/svg">
  <defs
     id="defs3881" />
  <sodipodi:namedview
     id="namedview3879"
     pagecolor="#ffffff"
     bordercolor="#000000"
     borderopacity="0.25"
     inkscape:showpageshadow="2"
     inkscape:pageopacity="0.0"
     inkscape:pagecheckerboard="0"
     inkscape:deskcolor="#d1d1d1"
     showgrid="false"
     inkscape:zoom="29.821429"
     inkscape:cx="14"
     inkscape:cy="13.983234"
     inkscape:window-width="1920"
     inkscape:window-height="1051"
     inkscape:window-x="-9"
     inkscape:window-y="131"
     inkscape:window-maximized="1"
     inkscape:current-layer="svg3877" />
  <g
     id="surface1">
    <path
       style=" stroke:none;fill-rule:nonzero;fill:rgb(0%,0%,0%);fill-opacity:1;"
       d="M 2.601562 16.429688 L 12.484375 25.652344 C 12.894531 26.035156 13.4375 26.25 14 26.25 C 14.5625 26.25 15.105469 26.035156 15.515625 25.652344 L 25.398438 16.429688 C 27.058594 14.878906 28 12.710938 28 10.441406 L 28 10.121094 C 28 6.300781 25.238281 3.039062 21.46875 2.410156 C 18.976562 1.996094 16.4375 2.8125 14.65625 4.59375 L 14 5.25 L 13.34375 4.59375 C 11.5625 2.8125 9.023438 1.996094 6.53125 2.410156 C 2.761719 3.039062 0 6.300781 0 10.121094 L 0 10.441406 C 0 12.710938 0.941406 14.878906 2.601562 16.429688 Z M 2.601562 16.429688 "
       id="path3874" />
  </g>
  <path
     style="fill:#0065fc;stroke:#0065fc;stroke-width:0.104;stroke-dasharray:none;stroke-opacity:1"
     d="M 13.63801,26.204347 C 13.376061,26.15747 13.003871,26.003357 12.775704,25.847292 12.607183,25.732024 3.3231986,17.10288 2.4701311,16.268617 1.3241946,15.14794 0.50317616,13.642213 0.18779324,12.082869 0.05398945,11.421304 0.03351567,11.179958 0.03466994,10.277844 0.035945,9.2813303 0.0739701,8.941629 0.27023234,8.1734206 0.80698532,6.0724666 2.2442383,4.2559628 4.1880958,3.2217433 5.2164074,2.6746353 6.3619511,2.375468 7.5649072,2.3398638 c 1.2301326,-0.036409 2.3169946,0.1735479 3.4180978,0.6602968 0.909556,0.4020745 1.605113,0.8920639 2.52269,1.7771233 l 0.494917,0.4773776 0.460772,-0.4452735 c 0.6029,-0.5826213 0.975116,-0.8904396 1.46676,-1.2129952 1.02536,-0.6727136 2.255469,-1.1068167 3.500961,-1.235482 0.540126,-0.055798 1.518097,-0.022071 2.048739,0.070654 2.738941,0.4786051 4.995595,2.3306887 5.985162,4.9121475 0.383125,0.9994484 0.503573,1.7097702 0.503223,2.9676647 -2.35e-4,0.864542 -0.0226,1.121705 -0.154022,1.771492 -0.286441,1.416245 -1.00576,2.820748 -1.994097,3.893563 -0.176084,0.191135 -9.97596,9.357499 -10.390562,9.718865 -0.467271,0.407272 -1.197511,0.614995 -1.789538,0.50905 z"
     id="path4246" />
</svg>
