<?xml version="1.0" encoding="UTF-8"?>
<svg xmlns="http://www.w3.org/2000/svg" xmlns:xlink="http://www.w3.org/1999/xlink" width="28px" height="25px" viewBox="0 0 28 25" version="1.1">
<g id="surface1">
<path style=" stroke:none;fill-rule:nonzero;fill:rgb(0%,39.607843%,98.823529%);fill-opacity:1;" d="M 0.445312 5.496094 L 0.445312 20.617188 C 0.445312 21.496094 0.921875 22.328125 1.71875 22.636719 C 5.8125 24.226562 9.90625 23.136719 14 22.058594 C 17.753906 21.066406 21.507812 20.066406 25.257812 21.132812 C 26.34375 21.441406 27.554688 20.667969 27.554688 19.503906 L 27.554688 4.382812 C 27.554688 3.503906 27.078125 2.671875 26.28125 2.363281 C 22.1875 0.773438 18.09375 1.863281 14 2.941406 C 10.246094 3.933594 6.492188 4.925781 2.742188 3.863281 C 1.652344 3.554688 0.445312 4.324219 0.445312 5.496094 Z M 14 17.1875 C 11.917969 17.1875 10.234375 15.089844 10.234375 12.5 C 10.234375 9.910156 11.917969 7.8125 14 7.8125 C 16.082031 7.8125 17.765625 9.910156 17.765625 12.5 C 17.765625 15.089844 16.082031 17.1875 14 17.1875 Z M 3.460938 17.1875 C 5.121094 17.1875 6.472656 18.589844 6.472656 20.3125 L 3.460938 20.3125 Z M 6.472656 7.03125 C 6.472656 8.753906 5.121094 10.15625 3.460938 10.15625 L 3.460938 7.03125 Z M 24.539062 14.84375 L 24.539062 17.96875 L 21.527344 17.96875 C 21.527344 16.246094 22.878906 14.84375 24.539062 14.84375 Z M 21.527344 4.6875 L 24.539062 4.6875 L 24.539062 7.8125 C 22.878906 7.8125 21.527344 6.410156 21.527344 4.6875 Z M 21.527344 4.6875 "/>
</g>
</svg>
