<?xml version="1.0" encoding="UTF-8"?>
<svg xmlns="http://www.w3.org/2000/svg" xmlns:xlink="http://www.w3.org/1999/xlink" width="28px" height="25px" viewBox="0 0 28 25" version="1.1">
<g id="surface1">
<path style=" stroke:none;fill-rule:nonzero;fill:rgb(0%,0%,0%);fill-opacity:1;" d="M 0 5.492188 L 0 20.621094 C 0 21.5 0.492188 22.328125 1.3125 22.636719 C 5.542969 24.222656 9.769531 23.140625 14 22.054688 C 17.878906 21.0625 21.757812 20.070312 25.632812 21.132812 C 26.75 21.441406 28 20.667969 28 19.503906 L 28 4.378906 C 28 3.5 27.507812 2.671875 26.6875 2.363281 C 22.457031 0.777344 18.230469 1.859375 14 2.945312 C 10.121094 3.933594 6.242188 4.925781 2.367188 3.863281 C 1.246094 3.554688 0 4.328125 0 5.492188 Z M 14 17.1875 C 11.851562 17.1875 10.109375 15.085938 10.109375 12.5 C 10.109375 9.914062 11.851562 7.8125 14 7.8125 C 16.148438 7.8125 17.890625 9.914062 17.890625 12.5 C 17.890625 15.085938 16.148438 17.1875 14 17.1875 Z M 3.109375 17.1875 C 4.828125 17.1875 6.222656 18.589844 6.222656 20.3125 L 3.109375 20.3125 Z M 6.222656 7.03125 C 6.222656 8.753906 4.828125 10.15625 3.109375 10.15625 L 3.109375 7.03125 Z M 24.890625 14.84375 L 24.890625 17.96875 L 21.777344 17.96875 C 21.777344 16.246094 23.171875 14.84375 24.890625 14.84375 Z M 21.777344 4.6875 L 24.890625 4.6875 L 24.890625 7.8125 C 23.171875 7.8125 21.777344 6.410156 21.777344 4.6875 Z M 21.777344 4.6875 "/>
</g>
</svg>
